<svg width="34" height="37" viewBox="0 0 25 37" fill="none" xmlns="http://www.w3.org/2000/svg">
    <path d="M22.501 10.5604L12.5422 0.382073C12.4222 0.261007 12.2793 0.164914 12.1219 0.0993381C11.9645 0.0337619 11.7957 0 11.6251 0C11.4546 0 11.2858 0.0337619 11.1284 0.0993381C10.971 0.164914 10.8281 0.261007 10.7081 0.382073L0.749315 10.5733C0.508338 10.8162 0.318021 11.1046 0.189414 11.4217C0.0608076 11.7388 -0.00352596 12.0783 0.000149012 12.4204V23.2446C-0.000851802 23.9058 0.251731 24.5422 0.705883 25.0228C1.16003 25.5034 1.78118 25.7915 2.4414 25.8279H20.8089C21.4691 25.7915 22.0903 25.5034 22.5444 25.0228C22.9986 24.5422 23.2511 23.9058 23.2501 23.2446V12.4204C23.2512 11.7267 22.9825 11.0597 22.501 10.5604ZM9.04181 23.2446V15.4946H14.2085V23.2446H9.04181ZM20.6668 23.2446H16.7918V14.2029C16.7918 13.8603 16.6557 13.5318 16.4135 13.2896C16.1713 13.0473 15.8427 12.9112 15.5001 12.9112H7.75015C7.40758 12.9112 7.07904 13.0473 6.8368 13.2896C6.59457 13.5318 6.45848 13.8603 6.45848 14.2029V23.2446H2.58348V12.3687L11.6251 3.13332L20.6668 12.4204V23.2446Z"
          fill="#4FD8DB"/>
</svg>
