<svg width="52" height="60" viewBox="0 0 52 60" fill="none" xmlns="http://www.w3.org/2000/svg">
<path d="M6.46844 19.4611C6.46844 30.1647 15.2259 38.9221 25.9295 38.9221C36.6331 38.9221 45.3906 30.1647 45.3906 19.4611C45.3906 8.75748 36.6331 0 25.9295 0C15.2259 0 6.46844 8.75748 6.46844 19.4611ZM40.8115 19.4611C40.8115 27.6462 34.1146 34.3431 25.9295 34.3431C17.7444 34.3431 11.0475 27.6462 11.0475 19.4611C11.0475 11.276 17.7444 4.57908 25.9295 4.57908C34.1146 4.57908 40.8115 11.276 40.8115 19.4611Z" fill="#4FD8DB"/>
<path d="M3.26259 59.7565C9.32987 53.6892 17.3432 50.3694 25.929 50.3694C34.5148 50.3694 42.5282 53.6892 48.5954 59.7565L51.858 56.4939C44.9322 49.6253 35.7168 45.7903 25.929 45.7903C16.1412 45.7903 6.92585 49.6253 0 56.4939L3.26259 59.7565Z" fill="#4FD8DB"/>
</svg>
