<svg width="324" height="61" viewBox="0 0 224 41" fill="none" xmlns="http://www.w3.org/2000/svg">
<path d="M84.3209 20.4759C82.1211 24.0816 78.1021 25.3182 78.1021 25.3182L80.3801 28.0421L89.7588 22.6693L88.1512 24.8887L90.4292 27.8175L96.9377 23.5675L96.0005 24.8203L98.5746 28.003C98.8024 27.8826 101.917 26.249 104.146 25.6892L107.185 27.6613C107.999 28.0941 109.626 28.4 112.565 23.7562C113.502 23.1054 114.999 22.5294 116.242 22.0868C115.266 23.5902 114.485 24.7845 114.485 24.7845L116.437 27.2317C116.437 27.2317 120.303 23.984 123.431 23.203C122.868 24.3679 122.462 25.6022 122.223 26.8738L122.985 28.0128C122.985 28.0128 128.335 27.427 131.742 25.2141C131.732 25.2418 131.723 25.2701 131.716 25.2987C132.207 26.3856 133.555 28.0648 133.555 28.0648C133.555 28.0648 139.393 29.0151 144.713 26.2815C145.095 26.5627 145.494 26.8203 145.908 27.0528C146.134 27.2077 146.379 27.3335 146.637 27.427H146.669C148.729 28.4033 151.505 27.824 151.505 27.824L160.871 23.5935C160.646 24.146 160.454 24.711 160.295 25.2857C160.786 26.3726 162.133 28.0518 162.133 28.0518C162.133 28.0518 167.617 28.963 172.801 26.5191L174.981 28.2243C175.619 26.9525 176.433 25.777 177.399 24.7325C178.2 25.5949 183.937 28.0681 183.937 28.0681C183.937 28.0681 187.601 26.8217 190.179 25.2467L192.186 27.8338L199.186 23.7302L197.859 25.5753L200.26 27.9184L200.195 28.0095L200.293 27.9542L200.348 28.0095L200.482 27.8566C201.393 27.3749 204.295 25.904 206.238 25.4712L208.061 27.8208L214.569 23.5707L213.661 24.8203L216.242 28.0095L216.398 27.8273L216.271 28.0095C216.271 28.0095 221.699 25.4875 224 25.0807C223.935 24.0035 223.854 23.5252 223.854 23.5252L219.493 24.2704L222.604 20.6907L220.212 17.6903C220.212 17.6903 215.884 21.9566 210.609 24.3257C213.017 21.4815 213.863 20.3523 213.863 20.3523L211.556 17.7749L207.065 23.3071L203.889 23.9319L206.713 20.6777L204.322 17.6773C201.828 19.9375 198.986 21.7813 195.906 23.1379C198.314 20.2937 200.612 17.0329 200.612 17.0329L198.304 14.4588L191.584 22.8125C190.322 23.3982 186.225 25.2304 185.047 24.8822C184.78 24.8041 183.094 23.8831 183.094 23.8831L182.404 23.4763C186.768 22.9459 190.995 18.8065 191.246 16.8149C190.488 15.9785 189.664 15.2301 188.831 14.257C187.204 16.6619 184.682 19.9162 179.332 21.6572L181.285 19.6689C180.279 18.819 179.214 18.0435 178.096 17.3486C176.433 19.0571 174.447 22.1388 173.24 24.1272C171.288 25.2076 168.652 25.8031 164.76 25.3313C165.833 22.1974 168.268 19.0473 170.617 18.1068C170.52 19.417 169.996 20.6594 169.127 21.6442C170.171 21.6442 172.147 21.6865 172.547 21.5726C173.024 20.5125 173.2 19.3415 173.055 18.1882C172.14 17.3291 170.09 15.4969 169.293 14.7972C166.709 16.0501 164.47 17.9131 162.768 20.2253L158.407 22.2039C158.851 21.5327 159.102 20.7527 159.133 19.9487C158.441 19.4207 157.811 18.8159 157.255 18.1459C161.027 16.9125 168.971 9.57091 162.426 0.110799C157.151 5.14838 148.026 19.1417 144.97 23.9254C142.836 25.1881 139.972 25.9561 135.806 25.4517C136.014 24.858 136.272 24.2832 136.578 23.7334C139.471 24.521 144.163 23.0826 144.424 22.8255C144.769 22.4643 145.049 21.5596 145.198 20.9413C145.415 20.0759 145.472 19.1783 145.367 18.2923C143.621 17.4173 142.048 16.2331 140.724 14.7972C137.513 16.3331 134.852 18.8173 133.099 21.9143C131.382 23.1997 129.409 24.1019 127.313 24.56C127.313 24.56 130.961 17.6154 133.424 18.0743C133.014 17.8335 130.203 15.9069 129.448 15.5164C127.44 16.317 125.455 18.9334 124.736 19.9943C123.912 20.3392 120.687 22.064 120.687 22.064L121.823 19.9943L119.643 17.5438L113.847 21.1919L115.448 18.1198L111.946 14.7972C111.946 14.7972 110.508 16.1217 106.918 17.9897C107.504 18.7349 107.7 18.9887 108.243 19.7047C109.118 19.3044 109.87 18.9822 110.521 18.7284C109.971 20.4629 109.133 22.0923 108.041 23.5479C107.11 24.8203 105.36 23.997 104.907 23.7822L101.653 24.4852L104.946 20.7005L102.555 17.7C100.097 20.2944 97.1656 22.3934 93.9177 23.8831C95.5127 21.9601 96.9802 19.9349 98.311 17.8204L95.4472 14.8038L92.0791 19.4573L87.5817 21.4099L88.9745 19.2393C88.1024 18.5394 87.2863 17.7723 86.5338 16.9451C85.6975 17.1663 82.837 18.3639 82.837 18.3639L88.6524 11.4161L86.1889 8.51328L74.7274 22.2658L73.9008 23.2941L68.0432 24.4689L70.7214 21.7744L68.4923 18.7512L62.5923 22.0314L63.6239 20.7297L61.3459 17.8009L56.3148 19.991L57.2195 18.7414L54.6877 15.6076L54.0206 14.6866C54.0206 14.6866 50.2424 18.5201 39.3537 22.2658C28.465 26.0114 13.1179 28.9012 2.71079 22.1909C11.3378 12.5648 25.3604 4.26323 50.9421 4.80343C44.964 7.36778 40.4959 13.8665 40.4959 13.8665C40.4959 13.8665 41.5178 15.3309 42.3053 16.2714C52.1136 8.08697 61.0758 6.48914 61.0758 6.48914L56.1944 0.110799C56.1944 0.110799 17.4168 -2.77898 0 20.9575C0.526863 22.5466 1.15849 24.0991 1.89072 25.6046C1.89072 25.6046 11.5038 38.1367 48.1629 21.5303L50.4409 20.3913L46.3926 25.0058L48.7845 28.0095C48.7845 28.0095 52.1917 24.0068 57.3497 22.1519C54.9416 24.9961 54.7854 25.2792 54.7854 25.2792L56.9722 27.9998C56.9722 27.9998 61.5867 23.8213 64.7141 23.0403C63.4319 24.7618 62.6964 25.673 62.6964 25.673L64.4765 28.0095C64.4765 28.0095 68.9511 26.3824 72.1598 25.4582L63.2789 36.5226L0.400273 37.5315L1.58157 38.3255L65.4853 40.2292H65.5309L65.5081 40.1902C69.1203 33.2391 80.5851 20.7297 84.3209 20.4727V20.4759ZM161.411 6.2288C161.642 12.2036 157.382 16.1901 153.998 16.7042C153.998 16.7042 158.746 9.65552 161.411 6.2288ZM152.777 18.7674C153.428 19.3532 154.486 20.0691 154.994 20.7525C153.763 23.5642 150.171 25.1262 148.459 25.3085C150.708 21.898 151.225 20.951 152.777 18.7772V18.7674ZM141.885 18.5103C141.675 19.6646 141.232 20.764 140.584 21.7418C139.623 21.9621 138.64 22.0713 137.655 22.0672C138.878 20.4401 140.434 19.1384 141.885 18.5038" fill="#4FD8DB"/>
<path d="M58.5764 16.4536C58.5764 16.4536 66.673 16.3495 71.8831 17.879C74.7826 14.8721 75.4302 14.1757 75.4302 14.1757H60.3305L58.5764 16.4536Z" fill="#4FD8DB"/>
<path d="M219.395 17.3127C221.849 14.7679 222.396 14.1821 222.396 14.1821H210.967L209.486 16.1054C209.486 16.1054 214.989 16.0273 219.395 17.3192" fill="#4FD8DB"/>
<path d="M137.538 33.0764L134.755 38.7974H136.324L138.423 34.4953H140.538L138.439 38.7974H140.047L142.839 33.0764H137.538Z" fill="#4FD8DB"/>
<path d="M140.639 38.7973H142.331L142.946 38.0553H145.061L144.974 38.7973H146.565L147.216 33.0372H145.663L140.639 38.7973ZM145.221 36.7438H144.04L145.445 35.0679L145.221 36.7438Z" fill="#4FD8DB"/>
<path d="M154.414 34.6645C154.645 33.8314 154.349 33.0764 152.462 33.0764H150.021L147.222 38.7974H148.781L149.543 37.2354H151.111C153.064 37.2354 154.04 36.0931 154.418 34.6645H154.414ZM152.657 34.9671C152.615 35.2534 152.464 35.5122 152.235 35.6893C152.006 35.8665 151.718 35.9482 151.43 35.9174H150.184L150.909 34.4334H151.866C152.569 34.4334 152.748 34.6352 152.654 34.9671" fill="#4FD8DB"/>
<path d="M159.546 33.0764L156.002 36.0703L157.47 33.0764H155.937L153.139 38.7974H154.623L158.564 35.4846L156.94 38.7974H158.469L161.261 33.0764H159.546Z" fill="#4FD8DB"/>
<path d="M167.448 33.0764H165.554L163.002 35.1526H162.866L163.878 33.0764H162.299L159.517 38.7974H161.086L162.247 36.4023H162.482L163.032 38.7974H164.763L163.992 35.8002L167.448 33.0764Z" fill="#4FD8DB"/>
<path d="M172.885 33.0764L170.074 36.4023L170.529 33.0764H168.427L165.628 38.7974H167.057L168.697 35.4325L168.294 38.7974H169.413L172.303 35.439L170.666 38.7974H172.228L175.023 33.0764H172.885Z" fill="#4FD8DB"/>
<path d="M177.835 33.0372L172.823 38.7973H174.516L175.131 38.0553H177.246L177.158 38.7973H178.749L179.4 33.0372H177.835ZM177.409 36.7438H176.227L177.633 35.0679L177.409 36.7438Z" fill="#4FD8DB"/>
<path d="M187.494 33.0764H185.701L184.051 34.5799L183.771 33.0764H182.095L182.573 35.6766L178.994 38.7974H180.787L182.814 36.9652L183.159 38.7974H184.842L184.292 35.8686L187.494 33.0764Z" fill="#4FD8DB"/>
<path d="M188.223 36.6105H191.028L191.715 35.2145H188.909L189.248 34.5181H192.131L192.837 33.0764H188.356L185.558 38.7974H190.071L190.745 37.4143H187.832L188.223 36.6105Z" fill="#4FD8DB"/>
<path d="M196.232 33.0764H193.784L190.982 38.7974H192.544L193.309 37.2354H194.875C196.827 37.2354 197.803 36.0931 198.181 34.6645C198.412 33.8314 198.119 33.0764 196.228 33.0764H196.232ZM196.417 34.9671C196.375 35.2534 196.224 35.5122 195.995 35.6893C195.766 35.8665 195.478 35.9482 195.19 35.9174H193.954L194.679 34.4334H195.636C196.339 34.4334 196.515 34.6352 196.424 34.9671" fill="#4FD8DB"/>
<path d="M202.027 32.9819C200.651 32.9819 199.17 33.4831 198.122 35.6407C197.962 35.9615 197.833 36.2972 197.738 36.643C197.37 37.9805 197.868 38.8819 199.893 38.8819C200.807 38.9182 201.708 38.6491 202.454 38.1171L201.861 36.9814C201.444 37.2793 200.946 37.4438 200.433 37.4533C199.456 37.4533 199.274 37.0367 199.456 36.4184C199.517 36.2166 199.595 36.0205 199.691 35.8327C200.169 34.8564 200.765 34.4496 201.614 34.4496C202.265 34.4496 202.59 34.6644 202.733 34.9898L204.331 33.9322C204.104 33.4929 203.619 32.9819 202.053 32.9819" fill="#4FD8DB"/>
<path d="M210.729 33.0764H208.835L206.284 35.1526H206.147L207.159 33.0764H205.584L202.799 38.7974H204.367L205.529 36.4023H205.763L206.316 38.7974H208.044L207.273 35.8002L210.729 33.0764Z" fill="#4FD8DB"/>
<path d="M213.277 33.0372L208.272 38.7973H209.964L210.579 38.0553H212.698L212.607 38.7973H214.198L214.849 33.0372H213.277ZM212.851 36.7438H211.67L213.075 35.0679L212.851 36.7438Z" fill="#4FD8DB"/>
<path d="M216.291 35.4293C216.121 36.0476 216.16 36.5748 216.701 36.8579L214.716 38.8105H216.476L218.191 37.0955H219.145L218.305 38.8105H219.867L222.653 33.0895H219.662C217.563 33.0895 216.629 34.2545 216.3 35.4423L216.291 35.4293ZM219.789 35.7677H218.585C218.074 35.7677 217.902 35.6603 218.022 35.2275C218.188 34.6255 218.604 34.4107 219.229 34.4107H220.459L219.789 35.7677Z" fill="#4FD8DB"/>
<path d="M78.4567 33.0764L75.6743 38.7973H77.2429L79.996 33.0536L78.4567 33.0764Z" fill="#4FD8DB"/>
<path d="M82.1667 33.0764L79.3843 38.7973H80.9528L83.7059 33.0536L82.1667 33.0764Z" fill="#4FD8DB"/>
<path d="M116.343 38.7973H118.035L118.65 38.0553H120.765L120.677 38.7973H122.269L122.92 33.0372H121.367L116.343 38.7973ZM120.925 36.7438H119.756L121.162 35.0679L120.925 36.7438Z" fill="#4FD8DB"/>
<path d="M105.594 34.6645C105.825 33.8314 105.532 33.0764 103.642 33.0764H101.207L98.4087 38.7974H99.9675L100.732 37.2354H102.301C104.253 37.2354 105.21 36.0931 105.604 34.6645H105.594ZM103.847 34.9671C103.804 35.2536 103.652 35.5125 103.423 35.6896C103.193 35.8666 102.904 35.9483 102.616 35.9174H101.377L102.099 34.4334H103.075C103.778 34.4334 103.954 34.6352 103.863 34.9671" fill="#4FD8DB"/>
<path d="M89.1893 33.0764L85.6454 36.0703L87.1131 33.0764H85.5836L82.7849 38.7974H84.2656L88.2098 35.4846L86.5859 38.7974H88.1154L90.9043 33.0764H89.1893Z" fill="#4FD8DB"/>
<path d="M109.994 32.9819H109.864H109.607C108.233 32.9819 106.749 33.4831 105.701 35.6407C105.54 35.9615 105.411 36.2972 105.314 36.643C105.031 37.6713 105.265 38.4426 106.31 38.742C106.671 38.8443 107.045 38.8915 107.42 38.8819H107.472C107.883 38.8859 108.293 38.8389 108.692 38.742C109.267 38.616 109.806 38.3617 110.268 37.9983C110.731 37.6348 111.105 37.1715 111.364 36.643C111.534 36.3226 111.673 35.987 111.78 35.6407C112.454 33.4831 111.37 32.9819 109.994 32.9819ZM110.072 35.8327C109.72 36.6788 109.187 37.4598 107.973 37.4598C107.918 37.4631 107.862 37.4631 107.807 37.4598C107.656 37.4507 107.509 37.4112 107.374 37.3435C107.24 37.2758 107.12 37.1814 107.023 37.066C106.95 36.8629 106.95 36.6411 107.023 36.438C107.081 36.2357 107.158 36.0395 107.254 35.8522C107.471 35.2961 107.897 34.8474 108.442 34.6026C108.629 34.5382 108.823 34.4967 109.021 34.4789C109.083 34.4789 109.148 34.4789 109.213 34.4789C109.278 34.4789 109.34 34.4789 109.398 34.4789C109.564 34.4923 109.725 34.5342 109.877 34.6026C110.202 34.788 110.335 35.2046 110.065 35.8522" fill="#4FD8DB"/>
<path d="M124.192 35.4293C124.023 36.0476 124.062 36.5748 124.602 36.8579L122.614 38.8105H124.374L126.092 37.0955H127.043L126.206 38.8105H127.765L130.551 33.0895H127.566C125.464 33.0895 124.534 34.2545 124.205 35.4423L124.192 35.4293ZM127.693 35.7677H126.489C125.978 35.7677 125.806 35.6603 125.926 35.2275C126.092 34.6255 126.506 34.4107 127.134 34.4107H128.361L127.693 35.7677Z" fill="#4FD8DB"/>
<path d="M82.1114 38.7973L82.785 37.4208H77.4839L76.8135 38.7973H82.1114Z" fill="#4FD8DB"/>
<path d="M81.6818 39.7119L82.7003 37.5901L81.1578 37.6129L80.136 39.7119H81.6818Z" fill="#4FD8DB"/>
<path d="M99.6746 34.6645C99.9056 33.8314 99.6127 33.0764 97.722 33.0764H95.2716L92.4729 38.7974H94.048L94.8127 37.2354H96.3813C98.3338 37.2354 99.2906 36.0931 99.6843 34.6645H99.6746ZM97.927 34.9671C97.8834 35.2533 97.7313 35.5116 97.5022 35.6886C97.2732 35.8655 96.9848 35.9475 96.6969 35.9174H95.4538L96.1795 34.4334H97.1558C97.8587 34.4334 98.0344 34.6352 97.9433 34.9671" fill="#4FD8DB"/>
<path d="M93.2799 37.2354H94.8387L96.84 33.0764H94.3896C92.5054 33.0764 91.477 33.8314 90.8978 34.6645C89.9215 36.0931 89.7653 37.2354 91.7113 37.2354H93.2799ZM92.6746 35.9336C92.0563 35.9336 91.8643 35.7091 92.3654 34.9834C92.5965 34.658 92.9675 34.4497 93.6671 34.4497H94.6434L93.9307 35.9336H92.6746Z" fill="#4FD8DB"/>
<path d="M116.587 35.4715C117.072 35.2567 118.198 33.1935 116.737 33.0698H113.879L111.094 38.7908H114.094C116.193 38.7908 116.974 37.9252 117.3 36.7374C117.344 36.6076 117.36 36.47 117.347 36.3335C117.334 36.1971 117.293 36.0649 117.226 35.9455C117.158 35.8261 117.067 35.7222 116.957 35.6405C116.847 35.5588 116.721 35.5012 116.587 35.4715ZM115.884 34.6612L115.829 34.8108C115.65 35.1656 115.399 35.2339 114.992 35.2339H114.374L114.787 34.3911H115.682C115.897 34.3911 115.943 34.5147 115.884 34.6612ZM115.685 36.7992C115.52 37.4012 115.152 37.4696 114.527 37.4696H113.297L113.814 36.4119H115.018C115.526 36.4119 115.806 36.3664 115.685 36.7992Z" fill="#4FD8DB"/>
</svg>
