<svg width="70" height="70" viewBox="0 0 70 70" fill="none" xmlns="http://www.w3.org/2000/svg">
<path d="M31.8182 25.4545H44.5455C45.3893 25.4545 46.1986 25.1193 46.7953 24.5226C47.392 23.9259 47.7273 23.1166 47.7273 22.2727C47.7273 21.4289 47.392 20.6195 46.7953 20.0228C46.1986 19.4261 45.3893 19.0909 44.5455 19.0909H38.1818V15.9091C38.1818 15.0652 37.8466 14.2559 37.2499 13.6592C36.6532 13.0625 35.8439 12.7273 35 12.7273C34.1561 12.7273 33.3468 13.0625 32.7501 13.6592C32.1534 14.2559 31.8182 15.0652 31.8182 15.9091V19.0909C29.2866 19.0909 26.8587 20.0966 25.0685 21.8867C23.2784 23.6768 22.2727 26.1047 22.2727 28.6364C22.2727 31.168 23.2784 33.5959 25.0685 35.386C26.8587 37.1761 29.2866 38.1818 31.8182 38.1818H38.1818C39.0257 38.1818 39.835 38.517 40.4317 39.1137C41.0284 39.7104 41.3636 40.5198 41.3636 41.3636C41.3636 42.2075 41.0284 43.0168 40.4317 43.6135C39.835 44.2102 39.0257 44.5454 38.1818 44.5454H25.4546C24.6107 44.5454 23.8014 44.8807 23.2047 45.4774C22.608 46.0741 22.2727 46.8834 22.2727 47.7273C22.2727 48.5711 22.608 49.3804 23.2047 49.9771C23.8014 50.5739 24.6107 50.9091 25.4546 50.9091H31.8182V54.0909C31.8182 54.9348 32.1534 55.7441 32.7501 56.3408C33.3468 56.9375 34.1561 57.2727 35 57.2727C35.8439 57.2727 36.6532 56.9375 37.2499 56.3408C37.8466 55.7441 38.1818 54.9348 38.1818 54.0909V50.9091C40.7134 50.9091 43.1414 49.9034 44.9315 48.1133C46.7216 46.3232 47.7273 43.8952 47.7273 41.3636C47.7273 38.832 46.7216 36.4041 44.9315 34.614C43.1414 32.8239 40.7134 31.8182 38.1818 31.8182H31.8182C30.9743 31.8182 30.165 31.4829 29.5683 30.8862C28.9716 30.2895 28.6364 29.4802 28.6364 28.6364C28.6364 27.7925 28.9716 26.9832 29.5683 26.3865C30.165 25.7898 30.9743 25.4545 31.8182 25.4545ZM35 0C28.0777 0 21.3108 2.05271 15.5551 5.89856C9.79933 9.74441 5.3133 15.2107 2.66423 21.6061C0.0151651 28.0015 -0.677952 35.0388 0.672531 41.8282C2.02301 48.6175 5.35644 54.8539 10.2513 59.7487C15.1461 64.6436 21.3825 67.977 28.1718 69.3275C34.9612 70.6779 41.9985 69.9848 48.3939 67.3358C54.7893 64.6867 60.2556 60.2007 64.1014 54.4449C67.9473 48.6892 70 41.9223 70 35C70 25.7174 66.3125 16.815 59.7487 10.2513C53.185 3.68749 44.2826 0 35 0ZM35 63.6364C29.3363 63.6364 23.7997 61.9569 19.0905 58.8103C14.3813 55.6637 10.7109 51.1913 8.54346 45.9587C6.37604 40.726 5.80895 34.9682 6.91389 29.4133C8.01883 23.8584 10.7462 18.7559 14.751 14.751C18.7559 10.7462 23.8584 8.01881 29.4133 6.91387C34.9682 5.80893 40.7261 6.37603 45.9587 8.54345C51.1913 10.7109 55.6637 14.3813 58.8103 19.0905C61.9569 23.7997 63.6364 29.3363 63.6364 35C63.6364 42.5948 60.6193 49.8786 55.249 55.249C49.8786 60.6193 42.5948 63.6363 35 63.6364Z" fill="#45BDC4"/>
</svg>
