<svg width="62" height="50" viewBox="0 0 62 50" fill="none" xmlns="http://www.w3.org/2000/svg">
<path d="M52.7 0H9.3C6.83349 0 4.468 0.987721 2.72391 2.74587C0.979819 4.50403 0 6.8886 0 9.375V40.625C0 43.1114 0.979819 45.496 2.72391 47.2541C4.468 49.0123 6.83349 50 9.3 50H52.7C55.1665 50 57.532 49.0123 59.2761 47.2541C61.0202 45.496 62 43.1114 62 40.625V9.375C62 6.8886 61.0202 4.50403 59.2761 2.74587C57.532 0.987721 55.1665 0 52.7 0ZM51.429 6.25L33.201 24.625C32.9128 24.9179 32.57 25.1504 32.1922 25.309C31.8144 25.4677 31.4092 25.5494 31 25.5494C30.5908 25.5494 30.1856 25.4677 29.8078 25.309C29.43 25.1504 29.0872 24.9179 28.799 24.625L10.571 6.25H51.429ZM55.8 40.625C55.8 41.4538 55.4734 42.2487 54.892 42.8347C54.3107 43.4208 53.5222 43.75 52.7 43.75H9.3C8.47783 43.75 7.68933 43.4208 7.10797 42.8347C6.52661 42.2487 6.2 41.4538 6.2 40.625V10.6562L24.428 29.0312C26.1718 30.7869 28.5355 31.773 31 31.773C33.4645 31.773 35.8282 30.7869 37.572 29.0312L55.8 10.6562V40.625Z" fill="#45BDC4"/>
</svg>
