<svg width="34" height="37"  viewBox="0 0 25 35" fill="none" xmlns="http://www.w3.org/2000/svg">
    <path d="M9.04167 10.3333C10.0635 10.3333 11.0625 10.0303 11.9121 9.46259C12.7618 8.89487 13.424 8.08795 13.815 7.14387C14.2061 6.19978 14.3084 5.16094 14.1091 4.1587C13.9097 3.15647 13.4176 2.23585 12.6951 1.51328C11.9725 0.790712 11.0519 0.298635 10.0496 0.0992784C9.0474 -0.100079 8.00855 0.00223862 7.06447 0.393291C6.12038 0.784344 5.31346 1.44657 4.74574 2.29622C4.17802 3.14588 3.875 4.1448 3.875 5.16667C3.875 6.53695 4.41934 7.85112 5.38828 8.82005C6.35722 9.78899 7.67138 10.3333 9.04167 10.3333ZM9.04167 2.58334C9.5526 2.58334 10.0521 2.73485 10.4769 3.01871C10.9017 3.30257 11.2328 3.70603 11.4284 4.17807C11.6239 4.65011 11.675 5.16953 11.5754 5.67065C11.4757 6.17177 11.2296 6.63208 10.8684 6.99336C10.5071 7.35465 10.0468 7.60069 9.54565 7.70036C9.04453 7.80004 8.52511 7.74888 8.05307 7.55336C7.58103 7.35783 7.17756 7.02672 6.8937 6.60189C6.60984 6.17706 6.45833 5.6776 6.45833 5.16667C6.45833 4.48153 6.73051 3.82445 7.21497 3.33998C7.69944 2.85551 8.35652 2.58334 9.04167 2.58334Z"
          fill="#4FD8DB"/>
    <path d="M9.04167 12C6.64367 12 4.34388 12.9526 2.64824 14.6482C0.952601 16.3439 0 18.6437 0 21.0417C0 21.3842 0.136086 21.7128 0.378321 21.955C0.620555 22.1972 0.949095 22.3333 1.29167 22.3333C1.63424 22.3333 1.96278 22.1972 2.20501 21.955C2.44725 21.7128 2.58333 21.3842 2.58333 21.0417C2.58333 19.3288 3.26376 17.6861 4.47494 16.4749C5.68611 15.2638 7.32881 14.5833 9.04167 14.5833C10.7545 14.5833 12.3972 15.2638 13.6084 16.4749C14.8196 17.6861 15.5 19.3288 15.5 21.0417C15.5 21.3842 15.6361 21.7128 15.8783 21.955C16.1206 22.1972 16.4491 22.3333 16.7917 22.3333C17.1342 22.3333 17.4628 22.1972 17.705 21.955C17.9473 21.7128 18.0833 21.3842 18.0833 21.0417C18.0833 18.6437 17.1307 16.3439 15.4351 14.6482C13.7395 12.9526 11.4397 12 9.04167 12Z"
          fill="#4FD8DB"/>
</svg>
