<svg width="71" height="70" viewBox="0 0 71 70" fill="none" xmlns="http://www.w3.org/2000/svg">
<path d="M70.8809 26.479C70.657 25.8095 70.2498 25.2214 69.7086 24.7861C69.1675 24.3508 68.5156 24.087 67.8321 24.0266L47.66 20.9886L38.6198 2.06481C38.3295 1.44596 37.8763 0.92405 37.312 0.558867C36.7477 0.193685 36.0951 0 35.4292 0C34.7632 0 34.1107 0.193685 33.5464 0.558867C32.9821 0.92405 32.5288 1.44596 32.2385 2.06481L23.1983 20.952L3.02627 24.0266C2.37013 24.1229 1.75328 24.4071 1.2457 24.8471C0.738127 25.287 0.360153 25.8651 0.154675 26.5156C-0.0334142 27.1513 -0.0502929 27.8279 0.10585 28.4728C0.261993 29.1176 0.585264 29.7064 1.04097 30.1759L15.6825 44.8171L12.1374 65.6076C12.0108 66.2938 12.0771 67.0031 12.3284 67.6517C12.5796 68.3003 13.0054 68.8611 13.5554 69.2679C14.0915 69.6636 14.7238 69.8972 15.3814 69.9425C16.0389 69.9877 16.6956 69.8429 17.2779 69.5241L35.4292 59.7511L53.5096 69.5607C54.0071 69.8506 54.5691 70.0019 55.1403 70C55.8913 70.0027 56.6237 69.7592 57.232 69.3045C57.782 68.8977 58.2078 68.3369 58.4591 67.6883C58.7104 67.0397 58.7766 66.3305 58.6501 65.6442L55.1049 44.8537L69.7465 30.2125C70.2583 29.7648 70.6366 29.1763 70.8374 28.5154C71.0383 27.8545 71.0533 27.1484 70.8809 26.479ZM49.0781 41.1202C48.6623 41.5354 48.3513 42.0493 48.1721 42.6172C47.9929 43.185 47.951 43.7895 48.05 44.3779L50.6025 59.7145L37.2727 52.3939C36.7597 52.1119 36.1875 51.9645 35.6064 51.9645C35.0253 51.9645 34.4531 52.1119 33.9402 52.3939L20.6103 59.7145L23.1629 44.3779C23.2619 43.7895 23.22 43.185 23.0408 42.6172C22.8616 42.0493 22.5505 41.5354 22.1348 41.1202L11.4992 30.1393L26.4244 27.9065C26.9987 27.8241 27.5447 27.5974 28.0144 27.2464C28.4842 26.8954 28.8634 26.4308 29.1188 25.8934L35.4292 11.9476L42.0941 25.93C42.3495 26.4674 42.7287 26.932 43.1984 27.283C43.6682 27.634 44.2141 27.8607 44.7884 27.9431L59.7136 30.1759L49.0781 41.1202Z" fill="#44BDC5"/>
</svg>
