<svg width="70" height="70" viewBox="0 0 70 70" fill="none" xmlns="http://www.w3.org/2000/svg">
<path d="M65.1401 60.1699C67.3323 57.2312 68.8367 53.8378 69.5423 50.2399C70.2478 46.6421 70.1365 42.9317 69.2166 39.3826C68.2966 35.8335 66.5915 32.5364 64.227 29.7344C61.8626 26.9324 58.8992 24.6971 55.5555 23.1935C54.8271 19.003 53.1533 15.0336 50.6611 11.587C48.1689 8.14035 44.9239 5.30715 41.1727 3.30266C37.4214 1.29818 33.2627 0.175143 29.0124 0.0188921C24.7622 -0.137359 20.5322 0.677285 16.644 2.40092C12.7557 4.12456 9.31146 6.71185 6.57293 9.96619C3.8344 13.2205 1.87363 17.0563 0.839622 21.182C-0.194389 25.3078 -0.274444 29.615 0.605543 33.7763C1.48553 37.9376 3.3024 41.8436 5.91811 45.1975L1.05582 50.0251C0.570441 50.517 0.241638 51.1417 0.110901 51.8203C-0.0198354 52.4989 0.0533532 53.2011 0.321232 53.8381C0.583656 54.477 1.0293 55.0238 1.602 55.4098C2.1747 55.7958 2.84884 56.0036 3.53944 56.007H23.4433C25.4255 60.186 28.5506 63.7182 32.4569 66.1946C36.3633 68.671 40.891 69.9904 45.5161 70H66.5044C67.195 69.9966 67.8691 69.7887 68.4418 69.4028C69.0145 69.0168 69.4601 68.4699 69.7226 67.8311C69.9904 67.194 70.0636 66.4919 69.9329 65.8133C69.8022 65.1346 69.4734 64.5099 68.988 64.018L65.1401 60.1699ZM21.0297 45.5123C21.0345 46.6838 21.128 47.8532 21.3095 49.0106H11.9697L13.1941 47.8212C13.5219 47.496 13.7822 47.109 13.9598 46.6828C14.1373 46.2565 14.2288 45.7992 14.2288 45.3374C14.2288 44.8756 14.1373 44.4184 13.9598 43.9921C13.7822 43.5658 13.5219 43.1789 13.1941 42.8537C11.2336 40.9146 9.67939 38.6041 8.62229 36.0574C7.5652 33.5106 7.02643 30.7786 7.03749 28.0211C7.03749 22.4544 9.24875 17.1156 13.1848 13.1793C17.1209 9.24306 22.4594 7.03168 28.0258 7.03168C32.3693 7.00558 36.6117 8.34137 40.1568 10.8513C43.7019 13.3612 46.3713 16.919 47.7898 21.0246C47.0202 21.0246 46.2856 21.0246 45.5161 21.0246C39.0219 21.0246 32.7937 23.6046 28.2016 28.1969C23.6095 32.7892 21.0297 39.0178 21.0297 45.5123ZM57.8992 63.0035L58.0741 63.1784H45.5161C41.47 63.1712 37.5516 61.7613 34.4283 59.189C31.3051 56.6167 29.1703 53.0411 28.3875 49.0712C27.6047 45.1014 28.2224 40.9829 30.1354 37.4175C32.0484 33.852 35.1383 31.0601 38.8787 29.5173C42.6191 27.9746 46.7787 27.7764 50.6488 28.9566C54.519 30.1369 57.8602 32.6224 60.1034 35.9899C62.3466 39.3574 63.353 43.3985 62.951 47.4248C62.5491 51.4511 60.7638 55.2135 57.8992 58.071C57.2401 58.7169 56.8629 59.597 56.8497 60.5198C56.8517 60.9826 56.9454 61.4405 57.1255 61.8668C57.3057 62.2932 57.5686 62.6795 57.8992 63.0035Z" fill="#45BDC4"/>
</svg>
