<svg xmlns="http://www.w3.org/2000/svg" width="256" height="256"><path fill-opacity=".016" d="M0 128.004v128.004l128.25-.254 128.25-.254.254-127.75L257.008 0H0v128.004m.485.496c0 70.4.119 99.053.265 63.672.146-35.38.146-92.98 0-128C.604 29.153.485 58.1.485 128.5" fill="#1976D2" fill-rule="evenodd"/><path fill-opacity=".048" d="M42.984 105.522c-9.703 1.513-22.454 5.883-29.019 9.943C8.629 118.766 0 126.922 0 128.665c0 3.069 2.643 6.468 6.47 8.32 8.43 4.081 26.096 2.055 42.622-4.888 5.713-2.401 6.79-2.624 5.437-1.129-1.348 1.489-1.461 2.29-.564 3.966l1.124 2.1 3.205-2.369c4.347-3.213 6.637-4.423 4.97-2.625-.988 1.064-.913 1.69.369 3.107 1.529 1.689 1.761 1.654 4.909-.747l3.303-2.519.328 2.309c.342 2.406 1.253 2.592 6.247 1.277l2.919-.769-4.419 5.513-4.42 5.513-35.75.758C17.087 146.899 1 147.575 1 147.984c0 .41 10.913 1.037 24.25 1.393 13.337.357 29.877.919 36.755 1.25l12.504.603 3.706-5.38c2.037-2.959 5.329-6.948 7.315-8.865 3.411-3.293 3.684-3.384 4.964-1.648 1.297 1.76 1.545 1.724 5.93-.845 3.3-1.934 4.576-2.293 4.576-1.287 0 3.117 2.208 3.783 5.283 1.593l2.97-2.114 1.715 2.273c1.62 2.149 1.874 2.19 4.623.749 2.625-1.375 3.176-1.366 5.646.093 2.673 1.579 2.822 1.536 6.251-1.787 2.18-2.113 3.518-2.856 3.527-1.958.039 3.611 1.567 4.125 5.451 1.833l3.777-2.228-.69 2.175c-.957 3.013 1.173 3.595 6.473 1.769 3.904-1.345 4.449-1.335 5.495.094.932 1.275 2.227 1.452 6.57.899 6.606-.842 7.586-.845 11.511-.045 2.254.46 4.454-.053 8.049-1.874l4.948-2.507.95 2.165c1.101 2.507 6.843 3.421 11.433 1.821 1.928-.672 3.143-.631 3.905.131.808.808 1.48.594 2.495-.794 1.348-1.844 1.506-1.847 5.373-.103 3.776 1.702 4.157 1.707 7.292.086 2.987-1.545 3.419-1.559 4.451-.148 1.029 1.408 1.43 1.388 4.059-.202 2.813-1.701 2.971-1.695 4.489.179 1.504 1.857 1.717 1.869 4.836.256 2.625-1.357 3.553-1.445 4.755-.447 1.203.998 2.04.917 4.294-.414 2.644-1.562 2.896-1.548 4.518.244 1.637 1.808 1.928 1.82 6.135.261 4.453-1.65 6.433-4.966 2.324-3.891-1.936.506-1.974.416-.508-1.204 1.452-1.603 1.421-1.925-.366-3.843-1.687-1.811-1.753-2.255-.492-3.302 2.697-2.238 1.492-2.965-4.92-2.965-4.184 0-6.769.472-7.516 1.372-.913 1.1-.517 1.496 2.003 2 1.728.345 4.21.628 5.516.628 3.246 0 2.979 1.382-.845 4.375-3.31 2.591-4.959 2.751-2.91.282.893-1.076.783-1.7-.485-2.753-1.43-1.187-1.985-.947-4.335 1.868-3.023 3.62-4.064 4.067-3.443 1.478.23-.963-.024-2.425-.566-3.25-.801-1.221-1.314-1.27-2.763-.263-.978.681-3.128 1.976-4.778 2.878l-3 1.639 2.344-2.542c1.625-1.762 2.142-3.182 1.683-4.627-.954-3.005-1.833-2.638-6.072 2.535-3.827 4.67-10.005 8.23-11.569 6.666-.468-.468.62-1.642 2.418-2.61 4.62-2.488 6.344-5.457 4.335-7.466-1.381-1.381-1.944-1.167-5.589 2.126l-4.053 3.661-2.159-2.159-2.159-2.159-1.86 2.41c-4.869 6.312-5.673 6.911-9.279 6.911-3.884 0-3.893-.784-.061-5.5 1.598-1.967 1.614-1.961.979.332-.556 2.012-.325 2.286 1.688 2 3.156-.449 3.534-3.479.798-6.391-2.18-2.321-2.311-2.338-5.179-.661-1.618.946-3.338 2.451-3.822 3.345-1.306 2.413-4.451 2.892-5.714.87-.877-1.405-.646-1.969 1.216-2.966 2.633-1.409 6.555-7.851 6.555-10.766 0-3.207-2.1-8.263-3.433-8.263-1.329 0-12.516 14.508-17.21 22.318-2.976 4.953-5.151 6.131-9.986 5.41-2.176-.325-1.847-.465 1.356-.578 3.376-.12 4.576-.682 5.959-2.794 1.715-2.617 1.699-2.671-1.632-5.452-3.864-3.226-5.075-2.922-9.801 2.461-2.947 3.356-7.035 6.187-7.812 5.41-.213-.214.973-1.878 2.636-3.698 1.663-1.821 2.888-3.385 2.723-3.477-.165-.091-1.086-.767-2.046-1.503-1.53-1.17-2.269-.864-5.943 2.455-3.029 2.736-4.319 3.396-4.638 2.37-1.094-3.523-2.321-3.953-5.278-1.847-2.435 1.733-2.78 1.789-2.232.36.43-1.12-.151-2.294-1.721-3.479-2.291-1.728-2.467-1.718-5.291.293-2.672 1.902-2.775 2.187-1.207 3.334 2.657 1.943.417 5.308-3.46 5.197-2.888-.082-2.945-.166-1.318-1.964 1.554-1.717 1.564-2.015.11-3.469-1.454-1.454-1.899-1.355-5.183 1.15-3.352 2.556-5.051 2.361-2.413-.277.906-.906.866-1.765-.173-3.707l-1.352-2.527-3.213 3.507c-3.179 3.472-5.675 4.596-5.192 2.339.137-.643-.768-1.7-2.013-2.349l-2.263-1.18 2.013-2.559c2.369-3.012 2.495-4.099.653-5.628-1.079-.896-2.68.457-7.75 6.546-3.515 4.222-6.615 7.98-6.89 8.353-.275.372-1.816 1-3.425 1.394-2.611.64-2.781.544-1.586-.896 1.127-1.358 1.094-1.859-.208-3.161-1.251-1.25-1.97-1.321-3.748-.37-1.794.961-2.539.87-4.045-.492-1.181-1.069-2.605-1.429-3.959-.999-1.562.496-2.635.009-4.108-1.865l-1.995-2.535-4.709 2.986c-2.59 1.643-8.986 4.398-14.213 6.123-8.322 2.746-10.934 3.146-21.004 3.218-9.49.068-12.106-.248-14.97-1.807l-3.47-1.89 4.838-4.379c8.954-8.107 23.194-13.266 40.881-14.811l6.778-.593L51 114.813c-3.525 3.397-4.865 5.376-4.422 6.531.878 2.286 1.51 2.135 7.27-1.741 2.776-1.869 7.209-4.194 9.85-5.166 2.641-.972 5.134-2.048 5.539-2.39.406-.342-.639-2.292-2.322-4.334-2.952-3.581-3.28-3.71-9.238-3.616-3.397.053-10.009.694-14.693 1.425m137.218 12.597c-2.673 4.055-2.912 4.796-1.26 3.912 2.135-1.143 5.403-6.539 4.869-8.041-.171-.481-1.795 1.377-3.609 4.129M68.2 121.2c-2.127 2.127-1.337 2.501 6.537 3.096 6.263.474 8.072.282 9.5-1.01.97-.878 1.763-1.976 1.763-2.441 0-1.347-16.426-1.019-17.8.355m91.3 6.8c-.34.55-.141 1 .441 1s1.059-.45 1.059-1-.198-1-.441-1-.719.45-1.059 1m13.035 1.587c-.932 1.422-1.503 2.779-1.268 3.014.772.771 5.766-3.739 5.184-4.681-.956-1.546-2.142-1.041-3.916 1.667m-80.674 1.469c-2.237 1.949-2.246 2.001-.167.995 1.207-.584 2.471-1.509 2.809-2.056.983-1.591-.094-1.158-2.642 1.061m-4.103 14.325l-1.612 3.381 3.633.59c2.214.359 4.704.054 6.377-.78 2.006-1.001 2.876-1.06 3.232-.221.33.78.908.639 1.799-.439 1.362-1.647 3.792-1.415 5.021.48.501.771 1.073.727 1.95-.15 1.475-1.475 5.234-1.685 4.342-.242-.829 1.342.831 1.262 4.025-.193 1.913-.872 2.804-.893 3.308-.077.96 1.553 22.168 1.503 24.099-.057 1.13-.913 1.285-.896.701.077-.458.762-.205 1.25.647 1.25 1.309 0 3.72-3.92 3.72-6.047 0-1.073-3.022-1.266-5.418-.346-.87.334-1.582 1.432-1.582 2.441s-.498 2.142-1.107 2.518c-.77.476-.898-.268-.42-2.441.541-2.465.354-3.125-.885-3.125-.864 0-2.133.9-2.82 2-1.531 2.451-2.96 2.611-2.562.286.413-2.407-3.258-2.936-4.89-.704-1.193 1.632-1.316 1.642-1.316.109 0-1.935-3.938-2.353-5.687-.604-.783.783-1.275.783-1.759 0-.931-1.506-5.551-1.371-5.569.163-.012.975-.194.969-.829-.031-1.006-1.587-12.002-1.458-14.098.165-1.1.852-1.264.82-.691-.134.473-.787.173-1.25-.808-1.25-.857 0-1.559.364-1.559.809 0 .445-.7 1.682-1.555 2.75-1.502 1.875-1.519 1.867-.5-.243 1.391-2.881 1.335-3.316-.426-3.316-.814 0-1.763 1.125-2.108 2.5-.345 1.375-1.029 2.5-1.519 2.5-1.158 0-1.125-.696.143-3.066.786-1.468.71-1.934-.315-1.934-.742 0-2.075 1.521-2.962 3.381m67.694-.288c-.88 1.701-1.304 3.388-.944 3.748.637.637 3.014-1.997 3.819-4.233.22-.609.768-.763 1.219-.341.452.421.288 1.299-.363 1.95-2.179 2.179-1.222 2.658 5.317 2.658 4.075 0 6.5-.412 6.5-1.104 0-.607.284-.82.631-.473.348.347 1.463.187 2.478-.356 1.472-.788 1.727-.679 1.262.535-.715 1.863 1.667 2.045 3.576.273 1.077-1 1.205-1 .641 0-.496.878.179 1.25 2.27 1.25 1.636 0 3.202-.562 3.48-1.25.403-1 .52-1 .583 0 .133 2.113 2.079 1.382 2.079-.781 0-1.118.675-2.291 1.5-2.607 2.487-.955 1.692-2.029-1.5-2.029-1.65 0-3.007.488-3.015 1.084-.009.595-.424.437-.924-.353-.753-1.19-1.178-1.211-2.485-.127-.867.719-1.576.901-1.576.403s-1.95-.99-4.332-1.094c-3.944-.171-4.484.101-6.024 3.033-1.682 3.202-1.689 3.205-1.302.447.589-4.193-1.354-4.463-4.629-.645-1.621 1.89-2.436 2.442-1.823 1.235 1.733-3.412 1.343-4.316-1.864-4.316-2.314 0-3.33.687-4.574 3.093m35.329.241l-1.59 3.334 10.904.043c9.747.039 10.905-.143 10.905-1.711 0-.965.759-2.373 1.687-3.128 1.785-1.452 1.791-1.525-.294 3.628-.487 1.204.302 1.5 4 1.5 2.534 0 4.607-.352 4.607-.782 0-.43 1.125-.875 2.5-.989 1.375-.113 2.5.224 2.5.749 0 1.361 21.151 1.029 22.942-.36 1.101-.854 1.264-.823.691.132-.455.758-.21 1.25.623 1.25.755 0 2.138-1.604 3.073-3.564l1.7-3.565-3.242.315c-2.176.211-3.611 1.059-4.365 2.582-1.815 3.661-2.488 3.814-1.807.409.851-4.257-1.672-4.311-4.67-.1-1.513 2.125-2.512 2.756-3.228 2.04-.716-.716-.324-1.615 1.269-2.904 2.273-1.841 2.067-1.867-14.34-1.865-15.009.002-16.646.17-16.646 1.705 0 .936-.675 2.262-1.5 2.947-1.279 1.061-1.5.785-1.5-1.878 0-3.827-.584-3.877-4.325-.372-2.726 2.554-2.848 2.584-1.724.414 1.503-2.898.589-3.982-1.996-2.368-1.174.733-1.955.818-1.955.212 0-2.286-2.74-.776-4.219 2.326m-67.198-.468c-.431.697-.513 1.537-.183 1.867.895.895 1.871-.421 1.387-1.871-.338-1.016-.574-1.016-1.204.004m95.041.673c-.965 2.514-.681 3.163.498 1.136.584-1.004.851-2.036.593-2.293-.257-.258-.749.263-1.091 1.157m10.297.056c-.667.803-.337 1.324 1.071 1.693 1.339.35 2.372-.1 3.023-1.316.82-1.532.637-1.821-1.071-1.693-1.133.085-2.493.678-3.023 1.316" fill="#1976D2" fill-rule="evenodd"/><path fill-opacity=".125" d="M39.113 106.545c-16.977 3.683-31.196 11.145-37.138 19.49-1.928 2.708-1.961 3.092-.502 5.914 3.477 6.723 15.661 8.783 30.714 5.191 7.364-1.757 11.469-3.182 22.687-7.875 1.025-.428.956.065-.272 1.939-1.447 2.209-1.468 2.662-.169 3.74 1.198.995 2.099.766 4.772-1.211 5.37-3.973 6.16-4.29 4.644-1.863-1.001 1.603-1.027 2.352-.114 3.265.912.912 2.109.572 5.214-1.483l4.03-2.666-.24 2.257c-.192 1.818.248 2.245 2.261 2.197 1.375-.033 3.584-.423 4.909-.868 2.083-.698 1.775-.001-2.281 5.161l-4.689 5.969-9.72.644c-5.345.354-21.558.646-36.028.649-14.515.003-26.07.392-25.775.869.293.475 16.182 1.177 35.309 1.56 19.126.384 35.45.879 36.275 1.1.928.249 2.782-1.483 4.862-4.543 4.261-6.268 12.883-15.276 16.141-16.862 1.964-.957 1.76-.568-.959 1.827-2.748 2.42-3.202 3.296-2.216 4.282.986.986 2.253.67 6.194-1.545 3.052-1.716 4.749-2.251 4.421-1.394-.294.765.15 1.958.986 2.652 1.248 1.035 2.009.907 4.236-.715 2.711-1.975 2.718-1.975 4.381.079 1.514 1.87 1.957 1.936 4.865.732 2.403-.995 3.485-1.041 4.345-.181 1.803 1.803 5.57 1.337 6.732-.833.582-1.087 1.99-2.476 3.13-3.086 1.844-.987 1.998-.879 1.408.982-.984 3.099 1.568 3.548 5.838 1.029 2.942-1.736 3.533-1.843 3.037-.552-.338.882-.362 2.264-.053 3.07.492 1.281 1.16 1.285 5.317.034 4.151-1.249 4.96-1.245 6.373.035 1.922 1.738 5.484 1.876 9.783.378 2.258-.788 4.046-.782 6.477.02 2.883.952 4.144.761 8.902-1.343l5.542-2.451 1.169 2.565c1.11 2.436 1.431 2.527 6.379 1.816 2.865-.412 6.316-.74 7.668-.728 1.351.012 2.957-.662 3.569-1.498.982-1.343 1.569-1.286 5.058.494 3.637 1.856 4.175 1.894 6.862.486 2.307-1.209 3.311-1.281 4.809-.346 1.539.961 2.544.797 5.378-.875 1.918-1.131 3.239-1.657 2.937-1.168-.302.489.121 1.444.939 2.123 1.181.981 2.107.979 4.49-.008 2.345-.971 3.319-.98 4.455-.038 1.152.957 2.08.835 4.486-.586 2.936-1.735 3.079-1.731 4.429.115 1.285 1.757 1.721 1.799 5.562.531 4.697-1.55 6.22-3.022 3.127-3.022-2.303 0-2.637-1.022-.901-2.758.876-.876.847-1.531-.12-2.697-1.126-1.356-1.858-1.113-6.158 2.043-4.381 3.216-6.69 3.622-3.722.654.876-.876.853-1.524-.097-2.668-1.088-1.311-1.707-1.032-4.671 2.111-3.244 3.44-6.129 4.115-3.368.789 1.082-1.304 1.055-1.825-.152-3.033-1.278-1.277-1.879-1.147-4.858 1.051-4.563 3.366-5.613 3.161-2.951-.577 1.897-2.665 2.003-3.279.777-4.505-1.226-1.227-1.939-.739-5.228 3.575-4.171 5.468-10.506 8.519-12.842 6.183-.891-.891-.782-1.168.455-1.168 2.009 0 7.777-4.738 7.777-6.389 0-.666-.516-1.727-1.147-2.358-.864-.864-1.629-.537-3.089 1.32-2.386 3.033-8.004 6.216-7.18 4.068.294-.765-.274-1.692-1.269-2.073-1.331-.512-2.711.373-5.307 3.402-2.567 2.995-4.514 4.253-7.258 4.692-4.438.71-4.96-.854-1.677-5.027 2.253-2.865 4.212-3.541 3.289-1.135-.368.957.017 1.5 1.062 1.5 2.467 0 3.05-2.818 1.042-5.037-2.451-2.709-3.643-2.492-8.466 1.537-4.83 4.036-4.878 4.049-6.502 1.829-1.035-1.416-.631-2.234 2.64-5.346 3.471-3.301 3.862-4.176 3.862-8.637 0-2.73-.592-5.774-1.316-6.763-1.214-1.661-1.627-1.425-5.342 3.058-2.214 2.673-6.767 8.959-10.117 13.971-5.054 7.56-6.634 9.22-9.283 9.75-4.45.89-5.942.799-5.942-.362 0-.55 1.096-1 2.435-1 7.01 0 9.837-4.284 5.315-8.056-3.348-2.793-4.533-2.425-9.844 3.056-6.576 6.787-10.61 6.938-4.507.169 2.057-2.281 2.061-2.36.194-3.724-1.714-1.254-2.313-1.027-5.936 2.246-3.953 3.572-4.048 3.6-4.996 1.475-1.17-2.622-1.944-2.682-5.398-.419-2.41 1.58-2.606 1.589-2.032.094.379-.988-.107-2.324-1.208-3.32-1.702-1.541-2.077-1.544-4.965-.051-2.981 1.541-3.376 4.25-.457 3.13 1.828-.702 1.773.422-.158 3.177-1.039 1.484-2.587 2.223-4.655 2.223-2.932 0-3.01-.097-1.451-1.82 1.418-1.567 1.456-2.081.269-3.704-1.32-1.806-1.529-1.751-5.027 1.32-4.598 4.038-6.326 4.134-3.41.189 2.064-2.792 2.108-3.136.593-4.652-1.515-1.515-1.833-1.402-4.288 1.516-3.103 3.688-4.509 3.926-6.294 1.067-.738-1.182-1.924-1.844-2.741-1.531-2.154.826-1.743-.458 1.092-3.417 1.601-1.671 2.297-3.254 1.893-4.305-1.03-2.685-2.683-1.889-6.727 3.239C86.778 128.676 83.287 132 80.993 132c-1.68 0-1.979-.313-1.198-1.253.731-.881.644-1.794-.295-3.077-1.275-1.744-1.452-1.748-4.002-.077-2.67 1.75-3.592 1.38-4.753-1.905-.157-.447-1.457-.368-2.886.176-2.248.854-2.776.66-3.899-1.438-1.617-3.022-2.065-3.016-7.002.1-2.201 1.39-8.155 3.971-13.23 5.735-8.382 2.914-10.328 3.21-21.228 3.224-12.239.015-18.5-1.346-18.5-4.022 0-1.796 11.449-10.282 17.5-12.971 7.32-3.252 16.794-5.372 27-6.04 8.304-.544 8.845-.468 7 .981-5.845 4.59-9.442 8.932-8.419 10.164.827.997 2.353.432 7.059-2.609 3.302-2.134 7.659-4.409 9.682-5.055 5.288-1.689 5.651-2.374 3.092-5.835L64.624 105l-9.562.079c-5.259.044-12.436.704-15.949 1.466m141.055 11.172c-3.673 5.647-3.156 7.072.915 2.517 2.408-2.695 3.999-7.234 2.535-7.234-.21 0-1.762 2.123-3.45 4.717M68 121.955c0 .525 1.463 1.176 3.25 1.447 10.773 1.635 11.425 1.615 13.26-.413 1.784-1.971 1.719-1.989-7.355-1.989-5.147 0-9.155.418-9.155.955m172.57-.069c-.301.488 1.979 1.202 5.068 1.588 4.468.558 5.94.377 7.203-.886 1.45-1.451 1.012-1.588-5.068-1.588-3.66 0-6.901.399-7.203.886m-80.999 5.685c-1.059.775-1.61 1.724-1.224 2.109.385.386 1.451-.049 2.367-.966 2.159-2.158 1.351-2.966-1.143-1.143m12.67 1.941c-2.591 4-1.051 4.823 2.621 1.402 1.772-1.651 1.995-2.382 1.066-3.5-.645-.778-1.23-1.408-1.3-1.402-.071.007-1.145 1.582-2.387 3.5M88.5 145c-1.899 3.673-1.97 3.528 2.127 4.307 2.969.564 3.157.409 3.719-3.054.736-4.535.107-5.342-1.469-1.882-.659 1.446-1.817 2.629-2.573 2.629-1.083 0-1.138-.442-.258-2.086.614-1.147.888-2.314.609-2.593-.279-.279-1.249.927-2.155 2.679m7.952.093c-1.97 3.81-1.19 4.866 1.711 2.318 1.95-1.712 2.11-1.729 1.538-.161-.998 2.736.841 2.051 2.138-.797 1.772-3.889 1.406-4.659-1.356-2.85-2.307 1.512-2.465 1.513-1.893.023 1.084-2.825-.47-1.759-2.138 1.467m8.203-1.264c-2.028 2.241-2.098 3.171-.238 3.171.779 0 1.679.563 2 1.25.466 1 .7 1 1.166 0 .321-.687 1.391-1.25 2.378-1.25 2.184 0 4.454-2.519 3.566-3.956-1.071-1.733-7.074-1.202-8.872.785m9.871 1.121c-1.992 3.852-1.927 4.269.474 3.058 5.833-2.941 5.759-2.924 5.628-1.228-.181 2.324 3.157 2.724 5.446.653 3.61-3.267 1.319-6.784-2.935-4.507-1.334.714-2.228.74-2.637.077-1.247-2.018-4.469-.968-5.976 1.947m14.2.499l-1.645 3.45 6.458-.2 6.459-.199.001-3.437.001-3.437-3 2.874-3 2.874v-2.687c0-3.993-3.23-3.526-5.274.762m15.093-2.199c-1.749 1.399-3.1 5.75-1.784 5.75.466 0 1.155-.498 1.531-1.107.485-.785.909-.742 1.458.146.537.869 1.263.306 2.375-1.844.881-1.702 1.601-3.343 1.601-3.645 0-1.038-3.619-.549-5.181.7m11.882 2.25c-.918 1.925-1.215 3.5-.66 3.5s1.436-1.125 1.959-2.5c.523-1.375 1.412-2.5 1.975-2.5 1.279 0 1.289.638.046 2.96-.891 1.666-.555 1.807 3.75 1.581 4.544-.239 4.742-.376 5.05-3.502.233-2.358-.042-3.125-1-2.786-.726.257-1.237 1.543-1.134 2.857.102 1.315-.057 1.8-.354 1.079-.417-1.012-1.012-.898-2.606.5-2.222 1.947-2.22 2-.12-3.189.457-1.13-.115-1.5-2.315-1.5-2.354 0-3.246.679-4.591 3.5m14.894-1.332c-2.191 3.128-2.112 5.125.155 3.913.963-.514 2.571-1.191 3.574-1.505 2.21-.691 1.848-3.919-.49-4.37-.904-.174-2.361.709-3.239 1.962m6.106 1.332c-1.883 3.95-1.661 4.175 1.851 1.874 2.292-1.502 2.434-1.502 1.858 0-1.084 2.825.47 1.759 2.138-1.467 1.97-3.81 1.19-4.866-1.711-2.318-1.95 1.712-2.11 1.729-1.538.161 1.167-3.2-.902-1.806-2.598 1.75m8.583-2.297c-.572.713-1.384 2.418-1.806 3.789-.686 2.231-.594 2.349.878 1.128 1.072-.89 1.644-.974 1.644-.242 0 .617.45 1.122 1 1.122s1-.752 1-1.671.745-2.494 1.655-3.5c.91-1.006 1.162-1.829.559-1.829-.603 0-1.404.498-1.78 1.107-.495.8-.881.787-1.397-.048-.527-.852-.985-.814-1.753.144m6.273 1.02c-.856 1.222-1.557 2.852-1.557 3.622 0 1.189.255 1.193 1.692.027 1.15-.932 1.451-.971.941-.122-.413.688-.364 1.25.108 1.25s1.465-.562 2.206-1.25c1.077-1 1.205-1 .641 0-1.566 2.772 1.111 1.03 2.794-1.819 2.164-3.664 1.425-4.972-1.376-2.437-1.802 1.631-2.006 1.648-2.006.161 0-2.323-1.604-2.058-3.443.568m10.303-.473c-4.185 5.053-4.211 5.162-1.19 4.949 3.264-.23 4.293-1.291 4.315-4.449.018-2.697-1.15-2.884-3.125-.5m6.429-.5c.251.688-.465 2.262-1.591 3.5-2.084 2.291-1.088 3.24 1.102 1.05.933-.933 1.2-.933 1.2 0 0 .66.45 1.2 1 1.2s1-.752 1-1.671.745-2.494 1.655-3.5c1.81-2.001.488-2.572-1.455-.629-.933.933-1.2.933-1.2 0 0-.66-.488-1.2-1.083-1.2-.596 0-.878.563-.628 1.25m5.412 2.25l-1.669 3.5h2.484c2.602 0 3.379-1.472 1.234-2.338-.687-.277-.125-.571 1.25-.653 2.306-.138 2.345-.216.5-1.009-1.908-.82-1.897-.863.25-.93 2.979-.093 2.918-2.07-.065-2.07-1.661 0-2.786.989-3.984 3.5m6.856-1.277c-1.92 2.741-2.127 5.468-.307 4.044 2.282-1.785 5.75-2.192 5.75-.673 0 .833 1.018 1.406 2.5 1.406 1.375 0 2.5-.45 2.5-1s-.713-1-1.583-1c-2.343 0-1.118-2.447 1.411-2.82 1.195-.175 2.172-.738 2.172-1.25 0-1.337-3.383-1.147-4.8.27-.933.933-1.467.933-2.4 0-1.793-1.793-3.505-1.459-5.243 1.023m13.03.62c-1.758 3.388-1.334 5.831.544 3.128.773-1.113 1.145-1.167 1.528-.221.828 2.04 2.198 1.421 1.634-.738-.33-1.261.07-2.214 1.094-2.607.887-.34 1.613-1.037 1.613-1.547 0-.537-.81-.495-1.919.099-1.399.748-2.034.69-2.339-.215-.231-.683-1.2.262-2.155 2.101m8.1-.038c-1.478 1.542-2.686 3.005-2.685 3.25.002.245 1.352.493 3 .551 2.756.098 2.998-.164 2.998-3.25 0-1.846-.141-3.356-.313-3.356-.172 0-1.522 1.262-3 2.805m7.132-1.555c-1.749 1.399-3.1 5.75-1.784 5.75.466 0 1.155-.498 1.531-1.107.485-.785.909-.742 1.458.146.537.869 1.263.306 2.375-1.844.881-1.702 1.601-3.343 1.601-3.645 0-1.038-3.619-.549-5.181.7M106 145.059c0 .582.45.781 1 .441s1-.816 1-1.059-.45-.441-1-.441-1 .477-1 1.059m4 0c0 .582.45.781 1 .441s1-.816 1-1.059-.45-.441-1-.441-1 .477-1 1.059m6-.059c0 .55.423 1 .941 1s1.219-.45 1.559-1c.34-.55-.084-1-.941-1s-1.559.45-1.559 1m6.61.573c-.42 1.096-.099 1.475 1.061 1.25.915-.178 1.851-.885 2.079-1.573.613-1.839-2.43-1.526-3.14.323M172 145c0 .55.45 1 1 1s1-.45 1-1-.45-1-1-1-1 .45-1 1m50 0c0 .55.45 1 1 1s1-.45 1-1-.45-1-1-1-1 .45-1 1m27.813-.317c.721.289 1.584.253 1.916-.079.332-.332-.258-.568-1.312-.525-1.165.048-1.402.285-.604.604" fill="#1976D2" fill-rule="evenodd"/><path fill-opacity=".144" d="M43.5 106.109c-15.058 2.172-28.208 7.949-37.341 16.404-5.748 5.322-5.976 5.714-4.981 8.568 3.387 9.717 25.093 9.729 48.572.028 7.455-3.08 8.435-3.076 5.629.025-.892.985-1.345 2.513-1.006 3.395.52 1.355 1.314 1.102 5.119-1.631 4.307-3.093 7.034-3.442 4.674-.598-.799.963-.811 1.655-.041 2.425.77.77 2.087.392 4.616-1.324 4.015-2.725 6.129-3.155 4.224-.859-2.158 2.601.198 3.889 4.51 2.466 2.012-.664 3.877-.989 4.144-.722.267.267-1.805 3.236-4.603 6.599L71.927 147l-26.213.07c-14.418.039-27.097.416-28.176.838-1.079.422 11.296 1.087 27.5 1.479l29.462.711 1.5-2.294c5.463-8.357 18.235-20.902 19.744-19.393.7.7-1.2 2.542-4.744 4.595-1.156.67-1.229 1.143-.316 2.066.917.926 2.196.602 5.678-1.438 5.125-3.004 6.077-3.22 5.304-1.207-1.05 2.737 1.726 3.612 4.88 1.539 2.937-1.93 2.963-1.929 4.509.114 1.358 1.794 1.891 1.902 4.205.847 2.093-.953 3.302-.937 5.749.077 2.914 1.207 3.293 1.095 6.343-1.86 3.185-3.088 7.097-4.595 4.828-1.86-.615.74-.71 1.858-.225 2.644.684 1.106 1.491.96 4.311-.784 4.428-2.736 4.91-2.694 4.145.356-.739 2.942.877 3.202 6.784 1.093 3.095-1.105 3.781-1.098 4.219.044.617 1.607 8.151 1.859 11.985.401 1.62-.616 2.744-.616 3.125 0 1.055 1.707 6.839 1.006 12.166-1.474l5.19-2.416.31 2.176c.287 2.012.874 2.177 7.81 2.188 4.777.008 8.102-.472 9.159-1.322 1.393-1.121 2.147-1.083 4.7.237 3.779 1.954 4.883 1.956 8.613.011 2.696-1.406 3.081-1.402 4.136.04 1.049 1.435 1.516 1.382 4.777-.543 2.998-1.769 3.615-1.87 3.615-.593 0 2.433 1.511 2.76 5.347 1.157 3.225-1.347 3.647-1.332 4.484.163.835 1.493 1.22 1.438 4.068-.59l3.145-2.239 1.737 2.145 1.737 2.145 4.491-2.077c3.424-1.584 3.838-1.988 1.741-1.7-3.046.417-3.524-.458-1.271-2.329 1.09-.904 1.215-1.719.478-3.098-.937-1.751-1.295-1.648-5.556 1.605-5.001 3.817-7.764 4.64-4.88 1.452 1.468-1.622 1.582-2.267.573-3.25-1-.974-1.822-.558-3.999 2.024-1.507 1.787-3.565 3.25-4.573 3.25-1.682 0-1.702-.144-.248-1.751 1.136-1.255 1.311-2.239.617-3.478-.88-1.575-1.333-1.463-5.079 1.25-5.413 3.921-6.653 3.77-3.457-.42 2.098-2.75 2.341-3.609 1.272-4.496-1.021-.847-2.271.03-5.499 3.859-2.99 3.545-5.149 5.137-7.588 5.595-5.411 1.015-6.237-.486-1.743-3.166 4.251-2.535 5.889-5.107 4.28-6.716-.652-.652-2.369.257-5.036 2.667-4.323 3.906-6.906 4.684-6.68 2.014.251-2.97-2.113-2.518-4.413.843-1.242 1.814-2.949 3.862-3.794 4.549-1.836 1.494-9.154 1.682-9.154.235 0-.558 1.614-2.695 3.587-4.75 3.024-3.149 3.509-3.382 3.094-1.485-.329 1.501-.025 2.25.913 2.25 2.055 0 1.717-3.408-.54-5.451-1.864-1.687-2.075-1.67-5 .413-1.68 1.196-3.054 2.521-3.054 2.946 0 .776-5.045 3.415-5.505 2.879-.136-.158-.546-1.261-.911-2.452-.484-1.577-.071-2.581 1.519-3.695 5.348-3.746 7.426-11.257 4.549-16.441-1.258-2.267-1.343-2.216-5.798 3.5-2.487 3.191-6.851 9.275-9.698 13.521-5.73 8.545-7.33 9.78-12.674 9.78-3.817 0-4.653-2.361-.906-2.557 6.794-.356 7.316-.528 7.985-2.634.525-1.657.039-2.756-1.992-4.504-3.168-2.724-4.334-2.309-9.784 3.49-3.776 4.018-7.785 6.001-7.785 3.851 0-.641 1.187-2.447 2.638-4.012 2.123-2.288 2.367-3.017 1.25-3.724-2.084-1.32-2.78-1.127-5.186 1.438-1.211 1.291-3.283 2.919-4.604 3.616-2.053 1.084-2.318 1.052-1.828-.226 1.146-2.985-1.42-3.808-4.991-1.602l-3.373 2.085.612-2.435c.957-3.814-1.662-5.393-5.151-3.107-2.205 1.445-2.422 1.879-1.067 2.14 4.153.8.098 6.567-4.735 6.735-3.356.117-3.378.09-1.832-2.269 1.101-1.68 1.251-2.701.506-3.446-.745-.745-2.399-.137-5.579 2.051-5.799 3.99-6.377 3.917-3.09-.392 2.278-2.987 2.475-3.739 1.34-5.106-1.2-1.447-1.529-1.361-3.37.874-2.713 3.295-8.723 6.457-7.013 3.69 1.167-1.889-1.517-4.032-3.632-2.9-1.944 1.041-2.814-.37-.942-1.527.525-.324 1.869-1.875 2.988-3.447 1.656-2.325 1.79-3.061.718-3.95-1.024-.85-2.898.771-8.387 7.251-4.975 5.874-7.913 8.507-9.92 8.893-3.485.669-4.032.249-2.337-1.794 1.012-1.219 1.034-1.833.099-2.768-.934-.934-1.856-.824-4.157.496-2.134 1.225-2.957 1.348-2.957.443 0-2.335-2.158-3.639-4.208-2.541-1.528.817-2.28.537-3.825-1.427l-1.923-2.445-8.272 4.136c-11.134 5.567-21.097 8.067-32.272 8.098-8.762.025-18.5-2.329-18.5-4.472 0-1.936 9.989-9.39 17.446-13.019 9.19-4.472 20.216-6.983 30.662-6.983H58.3l-3.9 2.854c-5.384 3.939-7.746 6.801-7.07 8.565.456 1.188 1.798.676 6.554-2.501 3.29-2.196 8.037-4.694 10.549-5.55 4.782-1.629 4.874-2.085 1.244-6.118-1.763-1.958-2.943-2.234-9.101-2.128-3.892.067-9.776.511-13.076.987m136.156 11.502c-2.114 3.044-3.591 5.788-3.281 6.097 1.127 1.128 5.829-2.951 7.209-6.254 3.06-7.325 1.217-7.252-3.928.157M68.5 122c-.364.588.745 1.01 2.691 1.024 1.82.013 4.974.411 7.009.883 3.054.71 3.999.531 5.405-1.023 1.656-1.83 1.475-1.884-6.391-1.884-4.453 0-8.374.45-8.714 1m172.06-.096c-.943 1.525 9.75 1.921 11.404.423 1.233-1.117.492-1.327-4.691-1.327-3.385 0-6.406.407-6.713.904m-82.152 6.198c-1.887 2.085-1.882 2.099.585 1.75 1.388-.197 2.634-1.125 2.82-2.102.451-2.365-1.09-2.206-3.405.352m13.588 1.404c-1.223 1.98-2.039 3.784-1.814 4.01.983.983 6.932-3.687 6.636-5.21-.573-2.957-2.557-2.464-4.822 1.2m-83.873 16.123c-1.42 3.118-1.445 3.081 2.377 3.524 2.472.286 3.019-.025 3.107-1.767.059-1.163.446-2.738.86-3.5s-.382-.036-1.768 1.614c-2.728 3.248-4.557 2.972-2.745-.414.614-1.147.723-2.086.242-2.086s-1.414 1.183-2.073 2.629m8.32.481c-1.693 3.274-.968 3.271 2.977-.012 1.78-1.482 1.871-1.467 1.261.204-.362.991-.268 1.561.21 1.266 1.025-.634 2.183-4.568 1.344-4.568-.318 0-1.477.787-2.576 1.75-1.903 1.667-1.968 1.667-1.36 0 1.038-2.846-.119-1.998-1.856 1.36m8.224-2.443c-1.239 1.238-.678 3.333.892 3.333.957 0 1.286.483.853 1.25-.564 1-.436 1 .641 0 .741-.687 2.141-1.25 3.112-1.25.97 0 2.246-.9 2.835-2 .994-1.858.76-2-3.298-2-2.403 0-4.669.3-5.035.667m9.949 1.083c-.34.963-.891 2.347-1.225 3.076-.467 1.019-.177 1.094 1.25.323 1.023-.551 2.646-1.247 3.609-1.545.963-.298 1.75-1.23 1.75-2.073 0-2.17-4.607-1.983-5.384.219m7.395-.263c-1.335 1.608-.718 4.513.958 4.513 1.321 0 5.031-3.687 5.031-5 0-1.552-4.608-1.178-5.989.487m6.964 1.078c-1.288 3.387-1.275 3.435.903 3.435 1.032 0 2.433-.67 3.112-1.488 1.007-1.213.904-1.615-.554-2.175-1.682-.645-1.674-.732.137-1.442 1.756-.687 1.725-.761-.348-.825-1.557-.048-2.582.739-3.25 2.495m7.832-.815c-2.728 3.176-2.724 3.812.02 3.698 2.115-.088 2.739-.668 2.989-2.78.365-3.072-.843-3.441-3.009-.918m5.662-.25c-.258.825-.704 2.239-.992 3.141-.446 1.401-.288 1.447 1.076.315 1.239-1.028 1.769-1.054 2.35-.113.511.826 1.124.392 1.924-1.362 1.567-3.441 1.552-3.481-1.358-3.481-1.393 0-2.743.675-3 1.5m13.506 1.065c-1.424 3.746-1.12 4.35.597 1.185.821-1.512 2.168-2.75 2.995-2.75 1.176 0 1.278.421.468 1.934-1.581 2.954-1.163 3.913.465 1.066 1.991-3.483 1.858-4-1.025-4-1.79 0-2.808.746-3.5 2.565m8.199-.251c-2.732 2.909-2.722 3.364.076 3.265 2.162-.076 3.531-1.686 3.68-4.329.107-1.91-1.349-1.497-3.756 1.064m5.949.315c-.659 1.446-.956 2.871-.66 3.167.295.295.537.012.537-.629 0-.642.81-1.167 1.8-1.167 1.855 0 4.2-1.787 4.2-3.2 0-.44-1.053-.8-2.339-.8-1.556 0-2.741.881-3.538 2.629m7.013-.028c-1.494 3.278-.987 3.996 1.153 1.632.926-1.023 1.28-2.312.834-3.034-.545-.882-1.136-.466-1.987 1.402m3.795-2.351c-.038.137-.236 1.6-.441 3.25l-.372 3 1.405-2.5c1.691-3.006 1.809-4 .477-4-.55 0-1.031.113-1.069.25m3.242 2.269c-1.452 3.187-1.488 4.627-.054 2.161 1.024-1.759 1.107-1.759 2.522 0 1.382 1.72 1.43 1.7.867-.356-.407-1.485-.026-2.507 1.198-3.219.987-.574 1.258-1.058.603-1.075-.655-.016-1.499.468-1.875 1.077-.497.804-.876.796-1.386-.029-.441-.714-1.136-.18-1.875 1.441m6.988.028c-1.581 3.47-1.458 4.228.307 1.894 1.449-1.915 1.469-1.914 1.516.059.035 1.512.257 1.668.909.639.933-1.473.328-5.139-.849-5.139-.398 0-1.245 1.146-1.883 2.547M196 144.5c-.821.989-.874 1.5-.154 1.5.6 0 .849.787.554 1.75-.296.963.152.625.995-.75.844-1.375 1.55-2.838 1.57-3.25.059-1.266-1.651-.833-2.965.75m4.74 1.25l-2.635 2.75h2.871c2.367 0 2.941-.482 3.274-2.75.222-1.512.116-2.75-.236-2.75s-1.825 1.238-3.274 2.75m8.26-1.366c0 .527-.787 1.886-1.75 3.02-1.27 1.496-1.318 1.73-.176.853 1.232-.947 1.853-.943 2.862.017 1.038.988 1.161.803.633-.95-.461-1.526-.121-2.48 1.137-3.195 1.608-.913 1.561-1.003-.456-.861-1.238.087-2.25.589-2.25 1.116m5.161 1.163c-1.542 3.383-1.516 3.465 1.089 3.374 1.238-.043 1.688-.306 1-.583-1.852-.748-1.515-2.336.5-2.353 1.4-.013 1.471-.192.355-.899-1.121-.71-1.023-.979.5-1.369 1.712-.438 1.693-.496-.194-.601-1.336-.074-2.509.803-3.25 2.431m5.962.082c-.659 1.446-.956 2.871-.66 3.167.295.295.537.012.537-.629 0-.642.81-1.167 1.8-1.167 1.855 0 4.2-1.787 4.2-3.2 0-.44-1.053-.8-2.339-.8-1.556 0-2.741.881-3.538 2.629m6.866-.608c-.595 1.111-.809 2.461-.476 3 .783 1.267 3.194 1.261 3.98-.01.358-.579-.073-.726-1.042-.354-1.228.471-1.562.157-1.297-1.217.196-1.019 1.479-2.165 2.851-2.546l2.495-.695-2.715-.099c-1.77-.065-3.091.603-3.796 1.921m6.624.979c-1.074 2.198-1.186 2.849-.301 1.75.775-.963 1.663-1.75 1.975-1.75.311 0 .772.787 1.024 1.75.376 1.44.478 1.387.573-.3.064-1.128.679-2.681 1.366-3.452 1.053-1.181.99-1.206-.403-.158-1.324.996-1.739.987-2.089-.048-.242-.719-1.195.262-2.145 2.208m7.544-.221l-1.979 2.779 2.661-.111c2.103-.087 2.727-.67 2.977-2.779.409-3.449-1.157-3.402-3.659.111M248 144.5c-.685.825-.91 1.5-.5 1.5.41 0 .149.787-.579 1.75-1.127 1.489-1.115 1.563.077.5 1.668-1.487 4.387-1.681 3.502-.25-.34.55-.378 1-.085 1 .294 0 1.232-1.35 2.085-3 1.516-2.931 1.496-3-.852-3-1.322 0-2.963.675-3.648 1.5m-143 .5c0 .55.675 1 1.5 1s1.5-.45 1.5-1-.675-1-1.5-1-1.5.45-1.5 1m4 0c0 .55.675 1 1.5 1s1.5-.45 1.5-1-.675-1-1.5-1-1.5.45-1.5 1m7 0c0 .55.423 1 .941 1s1.219-.45 1.559-1c.34-.55-.084-1-.941-1s-1.559.45-1.559 1m6.5 0c-.34.55-.352 1.43-.027 1.956.823 1.331 3.527.133 3.527-1.563 0-1.599-2.576-1.888-3.5-.393m21.5 0c0 .55.423 1 .941 1s1.219-.45 1.559-1c.34-.55-.084-1-.941-1s-1.559.45-1.559 1m28 0c0 .55.423 1 .941 1s1.219-.45 1.559-1c.34-.55-.084-1-.941-1s-1.559.45-1.559 1m50 0c0 .55.423 1 .941 1s1.219-.45 1.559-1c.34-.55-.084-1-.941-1s-1.559.45-1.559 1m27 0c0 .55.423 1 .941 1s1.219-.45 1.559-1c.34-.55-.084-1-.941-1s-1.559.45-1.559 1m-112 1.059c0 .582.45.781 1 .441s1-.816 1-1.059-.45-.441-1-.441-1 .477-1 1.059m64.5-.059c-.34.55-.141 1 .441 1s1.059-.45 1.059-1-.198-1-.441-1-.719.45-1.059 1m40.5 0c0 .55.45 1 1 1s1-.45 1-1-.45-1-1-1-1 .45-1 1m-112 1c0 .55.45 1 1 1s1-.45 1-1-.45-1-1-1-1 .45-1 1" fill="#1976D2" fill-rule="evenodd"/></svg>